<?xml version="1.0" encoding="UTF-8"?> <svg xmlns="http://www.w3.org/2000/svg" width="256" height="256" viewBox="0 0 256 256" fill="none"><path fill-rule="evenodd" clip-rule="evenodd" d="M128.312 255.433C198.768 255.433 255.879 198.323 255.879 127.868C255.879 57.4179 198.768 0.301804 128.312 0.301804C57.8622 0.301804 0.746124 57.4179 0.746124 127.868C0.746124 198.323 57.8622 255.433 128.312 255.433ZM163.471 159.705L130.46 78.2289L113.608 120.427L163.471 159.705ZM138.326 56.272L189.104 178.474C189.664 179.969 189.974 181.36 189.974 182.236C189.974 187.618 185.626 191.347 180.652 191.347C178.169 191.347 176.258 190.378 173.61 188.237L107.771 135.047L85.7089 190.312H66.6436L122.376 56.272C123.826 52.7477 126.936 50.8828 130.46 50.8828C133.978 50.8828 136.876 52.7477 138.326 56.272Z" fill="#1A1918"></path></svg> 